<svg width="137" height="201" viewBox="0 0 137 201" fill="none" xmlns="http://www.w3.org/2000/svg">
<path d="M50.5362 42.3891C50.5362 42.3891 52.7552 19.2482 72.4342 15.1219C92.1158 10.9956 102.326 35.9847 102.326 35.9847" stroke="#8FD67B" stroke-width="3" stroke-miterlimit="10" stroke-linecap="round" stroke-linejoin="round"/>
<path d="M63.1688 37.5132C63.1688 37.5132 62.0574 21.383 70.9768 15.4758C70.9768 15.4758 82.594 17.0042 86.4032 34.3129" stroke="#8FD67B" stroke-width="3" stroke-miterlimit="10" stroke-linecap="round" stroke-linejoin="round"/>
<path d="M67.916 16.5175C67.916 16.5175 65.2958 4.48992 69.422 3.69545C73.5483 2.9023 74.7637 14.7668 74.7637 14.7668" stroke="#8FD67B" stroke-width="3" stroke-miterlimit="10" stroke-linecap="round" stroke-linejoin="round"/>
<path d="M67.0952 10.0868C67.0952 10.0868 44.1884 8.29791 44.3476 13.6948C44.5067 19.089 67.3136 12.7477 67.3136 12.7477" stroke="#8FD67B" stroke-width="3" stroke-miterlimit="10" stroke-linecap="round" stroke-linejoin="round"/>
<path d="M73.5904 8.7741C73.5904 8.7741 93.8613 -1.61717 95.7659 3.6587C97.6706 8.93194 74.0087 10.3709 74.0087 10.3709" stroke="#8FD67B" stroke-width="3" stroke-miterlimit="10" stroke-linecap="round" stroke-linejoin="round"/>
<path d="M1.5 198.576C1.5 198.576 3.16522 161.678 7.21256 129.067C11.2599 96.4553 26.2562 54.5009 50.5362 42.3891C74.8176 30.2774 107.43 32.086 124.093 45.8209C140.757 59.5584 137.186 71.2216 125.998 77.1723C114.81 83.1242 66.7243 86.4573 51.9647 80.5067C37.2065 74.5547 40.3015 65.2697 41.73 63.3663" stroke="#E4E4E4" stroke-width="3" stroke-miterlimit="10" stroke-linecap="round" stroke-linejoin="round"/>
<path d="M64.8552 65.4158C65.2169 61.6144 60.3291 59.4007 57.9996 62.4325C56.1291 64.8686 56.871 68.2372 60.0305 68.9317C62.2271 69.4144 64.6421 67.6545 64.8552 65.4158Z" fill="#E4E4E4"/>
<path d="M120.558 65.4158C120.921 61.6144 116.031 59.4007 113.702 62.4325C111.833 64.8686 112.575 68.2372 115.732 68.9317C117.928 69.4144 120.345 67.6545 120.558 65.4158Z" fill="#E4E4E4"/>
<path d="M112.689 80.8843C112.689 80.8843 115.157 114.545 120.577 143.111C125.998 171.677 135.5 193.577 135.5 193.577" stroke="#E4E4E4" stroke-width="3" stroke-miterlimit="10" stroke-linecap="round" stroke-linejoin="round"/>
<path d="M63.5504 169.692C63.7161 171.999 67.2596 171.916 68.4987 169.692C69.7404 167.472 67.5174 134.779 67.5174 134.779H64.3435C64.3435 134.779 63.0742 163.029 63.5504 169.692Z" stroke="#8FD67B" stroke-width="3" stroke-miterlimit="10" stroke-linecap="round" stroke-linejoin="round"/>
<path d="M54.6375 118.142C54.6375 118.142 50.3784 118.038 49.5852 121.688C48.7908 125.338 55.8529 127.559 67.4385 127.479C79.0228 127.4 81.0866 123.433 81.1655 121.529C81.2457 119.626 77.7429 119.363 76.6762 119.297C75.6108 119.228 76.1659 123.83 64.5026 122.957C52.8381 122.085 54.6375 118.142 54.6375 118.142Z" stroke="#8FD67B" stroke-width="3" stroke-miterlimit="10" stroke-linecap="round" stroke-linejoin="round"/>
<path d="M76.817 126.077C75.4648 131.086 70.8755 134.779 65.4287 134.779C59.9634 134.779 55.3741 131.066 54.0219 126.039C57.1262 127.009 61.7352 127.525 67.4477 127.486C71.7713 127.448 74.7611 126.877 76.817 126.077Z" stroke="#8FD67B" stroke-width="3" stroke-miterlimit="10" stroke-linecap="round" stroke-linejoin="round"/>
<path d="M54.5743 118.288C54.6125 118.193 54.6309 118.136 54.6309 118.136C56.479 114.003 60.6105 111.128 65.4286 111.128C70.6847 111.128 75.1412 114.556 76.6643 119.298C75.6173 119.298 76.0751 123.83 64.496 122.954C54.2126 122.173 54.402 119.012 54.5743 118.288Z" stroke="#8FD67B" stroke-width="3" stroke-miterlimit="10" stroke-linecap="round" stroke-linejoin="round"/>
<path d="M53.5013 151.748C54.3748 150.699 55.9275 150.151 58.2111 147.528C60.4961 144.904 62.9987 145.47 63 150.717C63.0013 156.995 50.361 155.512 53.5013 151.748Z" stroke="#E4E4E4" stroke-width="3" stroke-miterlimit="10" stroke-linecap="round" stroke-linejoin="round"/>
<path d="M78.1402 151.681C77.2536 150.587 75.6778 150.015 73.3602 147.278C71.0425 144.539 68.5 145.13 68.4987 150.606C68.4973 157.156 81.3273 155.609 78.1402 151.681Z" stroke="#E4E4E4" stroke-width="3" stroke-miterlimit="10" stroke-linecap="round" stroke-linejoin="round"/>
<path d="M54.5297 153.085C54.5297 153.085 33.8747 166.321 23.6373 157.038C13.4026 147.754 16.4963 116.279 18.0431 111.128" stroke="#E4E4E4" stroke-width="3" stroke-miterlimit="10" stroke-linecap="round" stroke-linejoin="round"/>
<path d="M78.6493 153.085C78.6493 153.085 97.0747 166.321 106.206 157.038C115.337 147.754 112.576 116.279 111.195 111.128" stroke="#E4E4E4" stroke-width="3" stroke-miterlimit="10" stroke-linecap="round" stroke-linejoin="round"/>
</svg>
