<svg width="158" height="159" viewBox="0 0 158 159" fill="none" xmlns="http://www.w3.org/2000/svg">
<path d="M62.3745 105.588C62.3745 105.588 64.1494 110.232 64.9005 111.733C64.9005 111.733 62.1489 114.235 64.9005 116.736C67.6516 119.237 75.4066 111.983 75.656 109.981C75.9066 107.98 73.9053 106.98 71.4036 108.731C71.4036 108.731 68.2874 106.596 67.0942 102.911" stroke="#8FD67B" stroke-width="3" stroke-miterlimit="10" stroke-linecap="round" stroke-linejoin="round"/>
<path d="M10.8708 155.256C10.8708 155.256 15.373 93.7279 36.135 59.4572" stroke="#E4E4E4" stroke-width="3" stroke-miterlimit="10" stroke-linecap="round" stroke-linejoin="round"/>
<path d="M49.8615 36.692C49.8615 36.692 62.1489 13.9306 97.9173 10.428C133.688 6.92663 158.2 33.44 152.447 44.6973C146.695 55.952 104.921 41.6946 64.9005 56.2026" stroke="#E4E4E4" stroke-width="3" stroke-miterlimit="10" stroke-linecap="round" stroke-linejoin="round"/>
<path d="M144.449 48.9053C144.449 48.9053 140.453 70.9906 144.449 94.8626C148.445 118.736 158.2 141.499 156.2 157.507" stroke="#E4E4E4" stroke-width="3" stroke-miterlimit="10" stroke-linecap="round" stroke-linejoin="round"/>
<path d="M49.8615 103.207C49.8615 103.207 1.61669 106.98 1.86669 92.7227C2.11669 78.4653 31.7703 67.5267 31.7703 67.5267" stroke="#E4E4E4" stroke-width="3" stroke-miterlimit="10" stroke-linecap="round" stroke-linejoin="round"/>
<path d="M80.1587 33.1573C80.1587 33.1573 90.164 32.624 91.4147 33.1573C92.6654 33.6907 91.4147 38.9426 91.4147 38.9426" stroke="#E4E4E4" stroke-width="3" stroke-miterlimit="10" stroke-linecap="round" stroke-linejoin="round"/>
<path d="M127.901 33.1573C127.901 33.1573 137.907 32.624 139.157 33.1573C140.408 33.6907 139.157 38.9426 139.157 38.9426" stroke="#E4E4E4" stroke-width="3" stroke-miterlimit="10" stroke-linecap="round" stroke-linejoin="round"/>
<path d="M84.4106 18.9333C84.4106 18.9333 90.4147 21.9346 94.416 22.9346" stroke="#8FD67B" stroke-width="3" stroke-miterlimit="10" stroke-linecap="round" stroke-linejoin="round"/>
<path d="M124.183 25.9373C124.183 25.9373 130.424 24.1853 133.807 20.9333" stroke="#8FD67B" stroke-width="3" stroke-miterlimit="10" stroke-linecap="round" stroke-linejoin="round"/>
<path d="M56.0234 94.8627C56.0234 94.8627 34.8844 61.456 27.1302 38.4426C19.3754 15.4306 23.1276 3.1747 32.6328 1.7987C42.138 0.422701 48.3302 8.17733 49.8614 36.692C51.3932 65.208 62.3745 90.836 62.3745 90.836" stroke="#8FD67B" stroke-width="3" stroke-miterlimit="10" stroke-linecap="round" stroke-linejoin="round"/>
<path d="M50.1427 101.603C51.349 99.7013 55.3954 94.4733 60.6479 91.472C65.9011 88.4707 72.5294 95.224 68.2771 101.603C64.0251 107.98 47.5188 105.735 50.1427 101.603Z" stroke="#E4E4E4" stroke-width="3" stroke-miterlimit="10" stroke-linecap="round" stroke-linejoin="round"/>
</svg>
