<svg width="206" height="184" viewBox="0 0 206 184" fill="none" xmlns="http://www.w3.org/2000/svg">
<path d="M66.6114 137.081C66.6114 137.081 59.5381 161.129 53.1727 160.187C46.8074 159.244 49.7088 147.955 57.5954 135.695" stroke="#E4E4E4" stroke-width="3" stroke-miterlimit="10" stroke-linecap="round" stroke-linejoin="round"/>
<path d="M61.2993 130.459C61.2993 130.459 67.554 117.472 68.7326 115.843C69.346 114.995 73.6847 116.805 73.6847 116.805L68.7326 129.041" stroke="#E4E4E4" stroke-width="3" stroke-miterlimit="10" stroke-linecap="round" stroke-linejoin="round"/>
<path d="M68.7326 115.843C68.7326 115.843 62.93 114.92 63.474 107.611C64.018 100.303 71.5633 97.9453 74.982 98.1813C78.3993 98.416 81.9353 94.88 82.8793 92.2866C83.822 89.6933 88.0647 102.896 84.058 109.733C80.05 116.571 73.6847 116.805 73.6847 116.805C73.6847 116.805 78.3993 112.045 79.342 107.025C80.286 102.005 80.0993 96.0826 80.0993 96.0826" stroke="#8FD67B" stroke-width="3" stroke-miterlimit="10" stroke-linecap="round" stroke-linejoin="round"/>
<path d="M70.8407 115.843C70.8407 115.843 64.0181 105.78 73.6847 98.208" stroke="#8FD67B" stroke-width="3" stroke-miterlimit="10" stroke-linecap="round" stroke-linejoin="round"/>
<path d="M64.9341 123.037L70.3501 125.044" stroke="#E4E4E4" stroke-width="3" stroke-miterlimit="10" stroke-linecap="round" stroke-linejoin="round"/>
<path d="M2.24731 182.113C2.24731 181.405 5.78464 129.356 14.5073 98.2079C23.23 67.0586 35.49 43.4826 52.702 32.4026C69.9126 21.3213 105.041 23.6786 123.195 38.2959C141.349 52.9133 134.277 64.1493 121.545 64.6613C108.813 65.1733 74.3766 64.2306 61.2993 66.5879C48.222 68.9453 38.0833 67.2946 40.6766 60.4573" stroke="#E4E4E4" stroke-width="3" stroke-miterlimit="10" stroke-linecap="round" stroke-linejoin="round"/>
<path d="M121.545 64.6612C121.545 64.6612 111.878 86.6279 119.895 112.327C127.91 138.025 132.629 162.544 135.455 178.812" stroke="#E4E4E4" stroke-width="3" stroke-miterlimit="10" stroke-linecap="round" stroke-linejoin="round"/>
<path d="M54.3514 132.601C54.6981 130.523 57.4168 131.424 63.5461 130.009C69.6754 128.595 71.7981 128.359 72.5061 131.424C73.2128 134.488 70.3834 136.375 66.6114 137.081C62.8394 137.789 53.8794 135.432 54.3514 132.601Z" stroke="#E4E4E4" stroke-width="3" stroke-miterlimit="10" stroke-linecap="round" stroke-linejoin="round"/>
<path d="M54.3513 132.601C54.3513 132.601 20.8727 122.229 7.19932 109.497C-6.47535 96.7653 9.93931 87.9227 20.71 79.024" stroke="#E4E4E4" stroke-width="3" stroke-miterlimit="10" stroke-linecap="round" stroke-linejoin="round"/>
<path d="M32.1607 91.5146C31.4887 93.2613 31.6726 95.2319 31.1006 97.0133C30.2646 99.6226 27.9566 101.455 25.6806 102.979C23.4033 104.503 20.9487 105.969 19.5047 108.297C18.0593 110.627 18.07 114.139 20.3246 115.696C22.51 117.205 25.51 116.204 27.8353 114.92C30.1606 113.635 32.642 112.043 35.254 112.523C37.6887 112.969 39.474 115.113 41.8247 115.887C44.4247 116.743 47.5393 115.617 48.99 113.296C50.442 110.976 50.0913 107.683 48.1833 105.72C46.422 103.907 43.5313 103.125 42.542 100.8C41.3353 97.9639 43.7406 94.6213 42.766 91.6986C41.5046 87.9146 33.482 88.0813 32.1607 91.5146Z" stroke="#8FD67B" stroke-width="3" stroke-miterlimit="10" stroke-linecap="round" stroke-linejoin="round"/>
<path d="M105.605 131.659C104.205 133.447 102.086 134.505 100.399 136.028C98.7153 137.551 97.4327 140.016 98.4327 142.055C99.566 144.364 102.75 144.604 105.293 144.212C107.837 143.82 110.701 143.189 112.777 144.709C114.198 145.752 114.921 147.627 116.493 148.424C118.186 149.283 120.398 148.496 121.523 146.965C122.649 145.436 122.826 143.371 122.431 141.513C121.763 138.372 119.805 135.565 118.35 132.749C117.358 130.829 116.685 128.185 115.266 126.535C111.202 121.804 107.561 128.663 105.605 131.659Z" stroke="#8FD67B" stroke-width="3" stroke-miterlimit="10" stroke-linecap="round" stroke-linejoin="round"/>
<path d="M69.4113 164.385C67.246 167.344 64.9753 170.661 65.294 174.315C65.5073 176.768 66.9873 179.077 69.1273 180.296C71.2687 181.516 74.0087 181.613 76.23 180.547C79.4233 179.013 81.2273 175.461 84.3287 173.749C86.4073 172.601 88.8606 172.395 91.118 171.655C93.374 170.915 95.6673 169.299 95.922 166.937C96.1273 165.025 94.878 163.191 93.2646 162.143C90.9833 160.66 88.1526 160.404 85.566 159.795C83.4193 159.289 81.478 158.171 79.3686 157.664C74.8273 156.573 71.774 161.151 69.4113 164.385Z" stroke="#8FD67B" stroke-width="3" stroke-miterlimit="10" stroke-linecap="round" stroke-linejoin="round"/>
<path d="M62.9807 49.7879C63.1261 46.0693 57.2861 45.432 56.5621 48.9306C56.1994 50.6826 57.5447 52.604 59.3181 52.8453C61.0927 53.0866 62.9101 51.5759 62.9807 49.7879Z" fill="#E4E4E4"/>
<path d="M118.621 49.7879C118.767 46.0693 112.926 45.432 112.203 48.9306C111.841 50.6826 113.185 52.604 114.959 52.8453C116.733 53.0866 118.551 51.5759 118.621 49.7879Z" fill="#E4E4E4"/>
<path d="M63.3007 26.0387C75.382 20.952 90.6194 27.2174 97.6927 21.2054C104.766 15.1934 92.2554 4.112 68.0967 5.52667C43.938 6.94133 26.9633 25.0947 30.7353 35.2334C34.5073 45.3707 56.022 29.104 63.3007 26.0387Z" stroke="#E4E4E4" stroke-width="3" stroke-miterlimit="10" stroke-linecap="round" stroke-linejoin="round"/>
<path d="M50.914 9.61462C50.914 9.61462 49.5966 4.58394 53.8406 2.46261C58.0846 0.33994 62.2833 6.21195 62.2833 6.21195" stroke="#8FD67B" stroke-width="3" stroke-miterlimit="10" stroke-linecap="round" stroke-linejoin="round"/>
<path d="M165.633 93.9359C162.053 92.1346 153.609 95.8225 148.539 86.6279C143.47 77.4332 150.395 58.0999 175.857 62.8159C201.321 67.5305 213.729 109.497 194.867 121.737C177.965 132.705 164.453 117.048 165.162 107.025C165.869 97.0012 168.267 95.2626 165.633 93.9359Z" stroke="#E4E4E4" stroke-width="3" stroke-miterlimit="10" stroke-linecap="round" stroke-linejoin="round"/>
<path d="M116.719 91.9533C116.719 91.9533 127.91 118.692 140.405 119.871C152.901 121.049 165.633 93.9359 165.633 93.9359C165.633 93.9359 163.982 86.156 168.226 85.4493C172.47 84.7413 167.283 91.9533 167.283 91.9533" stroke="#E4E4E4" stroke-width="3" stroke-miterlimit="10" stroke-linecap="round" stroke-linejoin="round"/>
<path d="M161.041 81.2719C161.891 76.0092 152.462 74.9479 152.106 80.2519C151.951 82.5332 153.814 84.7665 156.086 85.0252C158.358 85.2852 160.675 83.5292 161.041 81.2719Z" stroke="#8FD67B" stroke-width="3" stroke-miterlimit="10" stroke-linecap="round" stroke-linejoin="round"/>
<path d="M173.409 71.2534C173.378 73.876 170.961 76.2333 168.338 76.2013C165.715 76.1693 163.357 73.7533 163.39 71.1293C163.467 64.7027 173.489 64.824 173.409 71.2534Z" stroke="#E4E4E4" stroke-width="3" stroke-miterlimit="10" stroke-linecap="round" stroke-linejoin="round"/>
<path d="M178.89 78.512C177.775 80.5067 177.998 83.1414 179.345 84.988C180.63 86.748 182.875 87.76 185.045 87.5574C188.083 87.272 190.713 84.4093 190.546 81.3627C190.243 75.856 181.635 73.5947 178.89 78.512Z" stroke="#8FD67B" stroke-width="3" stroke-miterlimit="10" stroke-linecap="round" stroke-linejoin="round"/>
<path d="M188.557 105.745C190.09 107.191 192.55 107.568 194.429 106.612C199.105 104.235 197.113 97.3305 192.377 96.4319C187.509 95.5079 185.315 102.693 188.557 105.745Z" stroke="#E4E4E4" stroke-width="3" stroke-miterlimit="10" stroke-linecap="round" stroke-linejoin="round"/>
<path d="M177.825 117.752C183.729 120.999 187.218 113.519 182.249 110.211C176.614 106.459 171.979 114.539 177.825 117.752Z" stroke="#8FD67B" stroke-width="3" stroke-miterlimit="10" stroke-linecap="round" stroke-linejoin="round"/>
</svg>
