<svg width="191" height="202" viewBox="0 0 191 202" fill="none" xmlns="http://www.w3.org/2000/svg">
<path d="M156.031 28.736C156.031 28.736 163.523 30.2334 165.183 30.1307C166.843 30.0294 172.949 28.408 174.517 27.4374C176.085 26.4654 181.501 21.076 181.501 21.076" stroke="#8FD67B" stroke-width="3" stroke-miterlimit="10" stroke-linecap="round" stroke-linejoin="round"/>
<path d="M165.183 30.1307L170.011 39.5374" stroke="#8FD67B" stroke-width="3" stroke-miterlimit="10" stroke-linecap="round" stroke-linejoin="round"/>
<path d="M174.517 27.4373L172.809 38.6493" stroke="#8FD67B" stroke-width="3" stroke-miterlimit="10" stroke-linecap="round" stroke-linejoin="round"/>
<path d="M2 183.119C2 183.119 4.06134 120.648 19.0693 80.4053C34.08 40.164 61.78 35.5053 89.7093 43.3133C117.64 51.12 121.587 64.8293 116.456 71.6987C111.328 78.568 52.2427 79.444 42.0107 76.6747C31.78 73.9053 33.4027 67.916 33.4027 67.916" stroke="#E4E4E4" stroke-width="3" stroke-miterlimit="10" stroke-linecap="round" stroke-linejoin="round"/>
<path d="M168.397 39.9667C168.397 39.9667 155.487 31.14 156.031 28.736C156.573 26.3347 160.319 20.4054 162.276 19.212C164.233 18.0187 171.424 15.1067 174.548 15.5827C177.672 16.0573 182.029 20.0907 182.591 21.064C183.153 22.0387 175.853 39.112 175.853 39.112" stroke="#E4E4E4" stroke-width="3" stroke-miterlimit="10" stroke-linecap="round" stroke-linejoin="round"/>
<path d="M109.595 74.7107C109.595 74.7107 106.608 100.223 117.972 132.848C129.337 165.476 128.32 200.123 128.32 200.123" stroke="#E4E4E4" stroke-width="3" stroke-miterlimit="10" stroke-linecap="round" stroke-linejoin="round"/>
<path d="M168.48 81.0453C170.129 78.984 178.096 69.2093 184.961 73.096C191.828 76.984 182.333 78.7 175.421 82.1026C168.511 85.504 164.769 85.6813 168.48 81.0453Z" stroke="#E4E4E4" stroke-width="3" stroke-miterlimit="10" stroke-linecap="round" stroke-linejoin="round"/>
<path d="M43.3839 115.447C44.4519 115.433 83.7866 127.64 117.749 116.835C151.712 106.028 166.905 84.4319 166.905 84.4319" stroke="#E4E4E4" stroke-width="3" stroke-miterlimit="10" stroke-linecap="round" stroke-linejoin="round"/>
<path d="M163.845 79.9999C162.496 78.7119 167.249 71.6399 172.705 69.6306C178.161 67.6199 179.424 72.1106 177.491 73.2053C175.557 74.2999 165.396 81.4786 163.845 79.9999Z" stroke="#E4E4E4" stroke-width="3" stroke-miterlimit="10" stroke-linecap="round" stroke-linejoin="round"/>
<path d="M109.257 85.0333C109.259 85.1573 120.001 96.224 163.845 80" stroke="#E4E4E4" stroke-width="3" stroke-miterlimit="10" stroke-linecap="round" stroke-linejoin="round"/>
<path d="M56.5359 64.3347C58.7639 61.0093 53.8626 58.6973 52.0492 61.6667C50.1759 64.7307 54.4972 67.376 56.5359 64.3347Z" fill="#E4E4E4"/>
<path d="M105.204 64.2266C107.433 60.9013 102.531 58.5906 100.717 61.5573C98.844 64.624 103.167 67.268 105.204 64.2266Z" fill="#E4E4E4"/>
<path d="M184.312 66.0733C191.207 59.78 191.297 45.724 182.436 41.0387C174.868 37.036 163.588 39.2307 159.533 47.0347C156.129 53.5813 158.093 62.44 163.945 66.936C169.796 71.432 178.861 71.048 184.312 66.0733Z" stroke="#E4E4E4" stroke-width="3" stroke-miterlimit="10" stroke-linecap="round" stroke-linejoin="round"/>
<path d="M181.025 62.5573C185.824 58.1773 185.888 48.396 179.721 45.1347C174.455 42.3493 166.605 43.8773 163.784 49.3067C161.415 53.8627 162.783 60.028 166.853 63.1573C170.925 66.284 177.233 66.0173 181.025 62.5573Z" stroke="#8FD67B" stroke-width="3" stroke-miterlimit="10" stroke-linecap="round" stroke-linejoin="round"/>
<path d="M150.624 24.5986C150.624 24.5986 142.623 21.1693 143.343 21.112" stroke="#8FD67B" stroke-width="3" stroke-miterlimit="10" stroke-linecap="round" stroke-linejoin="round"/>
<path d="M161.533 13.6L157.011 5.98132" stroke="#8FD67B" stroke-width="3" stroke-miterlimit="10" stroke-linecap="round" stroke-linejoin="round"/>
<path d="M171.488 10.8494L172.836 2.00003" stroke="#8FD67B" stroke-width="3" stroke-miterlimit="10" stroke-linecap="round" stroke-linejoin="round"/>
<path d="M180.981 15.3147L185.471 10.3174" stroke="#8FD67B" stroke-width="3" stroke-miterlimit="10" stroke-linecap="round" stroke-linejoin="round"/>
</svg>
