<svg width="190" height="167" viewBox="0 0 190 167" fill="none" xmlns="http://www.w3.org/2000/svg">
<path d="M44.79 39.812L56.054 21.1453" stroke="#8FD67B" stroke-width="3" stroke-miterlimit="10" stroke-linecap="round" stroke-linejoin="round"/>
<path d="M53.2354 43.4199L67.374 19.3866" stroke="#8FD67B" stroke-width="3" stroke-miterlimit="10" stroke-linecap="round" stroke-linejoin="round"/>
<path d="M92.7939 33.3173L101.395 15.7666" stroke="#8FD67B" stroke-width="3" stroke-miterlimit="10" stroke-linecap="round" stroke-linejoin="round"/>
<path d="M97.9448 37.9812L110.182 15.1305" stroke="#8FD67B" stroke-width="3" stroke-miterlimit="10" stroke-linecap="round" stroke-linejoin="round"/>
<path d="M108.255 40.4187L120.799 14.8373" stroke="#8FD67B" stroke-width="3" stroke-miterlimit="10" stroke-linecap="round" stroke-linejoin="round"/>
<path d="M13.674 76.8426C13.674 76.8426 4.97668 79.7092 2.32068 88.8786C-0.332652 98.0479 13.9033 114.457 29.3473 116.387C44.79 118.317 44.79 87.1892 44.79 87.1892" stroke="#E4E4E4" stroke-width="3" stroke-miterlimit="10" stroke-linecap="round" stroke-linejoin="round"/>
<path d="M37.7926 27.6692C38.0699 29.8639 41.6526 42.1186 53.2353 43.4199C64.818 44.7212 69.8859 37.9639 72.2979 33.6213C74.7113 29.2773 73.4046 26.1412 74.7833 25.1759C76.1593 24.2092 86.294 23.4853 87.742 23.4853C89.19 23.4853 90.1553 36.9052 102.702 39.8479C115.25 42.7906 122.247 34.0226 122.971 27.6692C123.695 21.3146 122.49 15.8412 120.799 14.8372C119.111 13.8345 36.8273 20.0279 37.7926 27.6692Z" stroke="#E4E4E4" stroke-width="3" stroke-miterlimit="10" stroke-linecap="round" stroke-linejoin="round"/>
<path d="M34.4141 41.1014C34.4141 41.1014 38.5168 49.5467 51.3061 51.236C64.0954 52.9254 96.6701 50.2707 110.182 46.1681C123.695 42.0667 127.019 31.6907 123.186 24.2093" stroke="#E4E4E4" stroke-width="3" stroke-miterlimit="10" stroke-linecap="round" stroke-linejoin="round"/>
<path d="M116.598 14.7306C116.598 14.7306 101.979 -1.60936 72.058 2.73464C42.1367 7.07731 21.8673 24.2093 15.834 61.1293C9.80202 98.0479 12.9393 117.352 10.2847 164.888" stroke="#E4E4E4" stroke-width="3" stroke-miterlimit="10" stroke-linecap="round" stroke-linejoin="round"/>
<path d="M110.182 46.168C110.182 46.168 113.802 50.0293 115.01 61.1293C116.215 72.2293 131.177 128.452 141.069 152.824" stroke="#E4E4E4" stroke-width="3" stroke-miterlimit="10" stroke-linecap="round" stroke-linejoin="round"/>
<path d="M40.93 79.1879C38.758 80.8493 40.2059 86.8813 44.7899 87.3639C49.3753 87.8466 51.0646 82.1106 50.5819 79.1879C50.5819 79.1879 76.5753 75.2986 76.4886 74.0919C76.4006 72.8853 78.09 70.0866 70.61 70.8826C63.1286 71.6799 50.0993 74.0919 47.9273 73.8506C45.7553 73.6093 42.1193 65.4053 37.7846 66.3706C33.4499 67.3359 36.1033 70.9559 39.2406 72.6439C42.3766 74.3333 40.93 79.1879 40.93 79.1879Z" stroke="#E4E4E4" stroke-width="3" stroke-miterlimit="10" stroke-linecap="round" stroke-linejoin="round"/>
<path d="M120.145 84.5787C120.145 84.5787 131.901 101.185 143.725 102.875C155.547 104.564 156.057 89.6293 155.802 80.2053" stroke="#E4E4E4" stroke-width="3" stroke-miterlimit="10" stroke-linecap="round" stroke-linejoin="round"/>
<path d="M151.942 72.0292C149.77 73.6892 151.218 79.7226 155.802 80.2052C160.387 80.6879 162.075 74.9532 161.594 72.0292C161.594 72.0292 187.587 68.1399 187.501 66.9332C187.413 65.7266 189.102 62.9279 181.622 63.7239C174.141 64.5212 161.111 66.9332 158.939 66.6919C156.767 66.4506 153.13 58.2466 148.795 59.2119C144.461 60.1772 147.115 63.7959 150.253 65.4852C153.39 67.1746 151.942 72.0292 151.942 72.0292Z" stroke="#E4E4E4" stroke-width="3" stroke-miterlimit="10" stroke-linecap="round" stroke-linejoin="round"/>
</svg>
