<svg width="165" height="209" viewBox="0 0 165 209" fill="none" xmlns="http://www.w3.org/2000/svg">
<path d="M53.821 78.6471C53.821 78.6471 44.0953 80.7708 40.8276 70.6475" stroke="#8FD67B" stroke-width="3" stroke-miterlimit="10" stroke-linecap="round" stroke-linejoin="round"/>
<path d="M62.2739 195.232C62.2739 195.232 61.2724 203.47 65.9948 204.293C70.7199 205.118 73.1911 198.39 73.1911 198.39C73.1911 198.39 72.1611 204.911 79.1646 205.529C86.1681 206.148 86.5847 199.406 86.5847 199.406C86.5847 199.406 89.2567 206.148 94.4065 206.766C99.5564 207.384 101.615 199.406 101.615 199.406C101.615 199.406 103.881 206.148 108.722 205.941C113.562 205.735 114.797 198.39 114.797 198.39C114.797 198.39 117.063 204.705 122.007 204.293C126.949 203.883 128.187 196.722 128.187 196.722C128.187 196.722 130.519 203.264 135.738 203.058C140.956 202.851 140.982 194.753 140.982 194.753C140.982 194.753 141.575 199.935 147.547 200.777C153.521 201.617 154.093 190.721 154.093 190.721" stroke="#8FD67B" stroke-width="3" stroke-miterlimit="10" stroke-linecap="round" stroke-linejoin="round"/>
<path d="M47.3238 55.1692C47.3238 55.1692 51.9757 52.6981 56.3018 56.1992C56.3018 56.1992 43.9069 48.5022 47.3238 35.5631C50.7394 22.6254 67.6302 18.6683 75.8686 29.7103C75.8686 29.7103 71.75 15.417 83.9021 5.73604C96.0541 -3.94487 115.005 6.35484 113.562 23.2442C113.562 23.2442 116.24 12.5333 128.187 13.5633C140.133 14.5932 140.544 28.3927 139.926 31.0701C139.926 31.0701 152.285 25.3028 159.082 36.8374C165.879 48.3719 156.672 59.5157 150.77 58.578" stroke="#8FD67B" stroke-width="3" stroke-miterlimit="10" stroke-linecap="round" stroke-linejoin="round"/>
<path d="M28.2212 183.01C28.2212 183.01 39.4803 123.416 47.7201 95.6774C55.9585 67.9401 68.0413 49.8145 87.5402 44.3227C107.04 38.8295 146.861 51.8053 158.395 64.8163C169.93 77.8273 159.494 92.6567 138.348 93.7545C117.2 94.8537 88.0898 89.0864 79.5759 90.4597" stroke="#E4E4E4" stroke-width="3" stroke-miterlimit="10" stroke-linecap="round" stroke-linejoin="round"/>
<path d="M88.7776 60.9366C88.7776 60.9366 92.071 65.7432 97.016 67.2535" stroke="#8FD67B" stroke-width="3" stroke-miterlimit="10" stroke-linecap="round" stroke-linejoin="round"/>
<path d="M128.187 70.2743C128.187 70.2743 133.129 68.0773 135.738 64.0945" stroke="#8FD67B" stroke-width="3" stroke-miterlimit="10" stroke-linecap="round" stroke-linejoin="round"/>
<path d="M91.4142 73.5973L91.4142 73.5976C91.5327 74.3028 91.0899 75.127 90.434 75.4181C89.7782 75.7092 88.8707 75.4854 88.4259 74.9233C87.9805 74.3605 87.971 73.4258 88.4049 72.8545M91.4142 73.5973L88.4049 72.8545M91.4142 73.5973C91.1735 72.1624 89.2831 71.6981 88.4049 72.8545M91.4142 73.5973L87.2103 71.9473L88.4049 72.8545" fill="#E4E4E4" stroke="#E4E4E4" stroke-width="3"/>
<path d="M136.412 75.4181L136.413 75.4179C137.069 75.1272 137.511 74.3038 137.394 73.5968C137.153 72.1629 135.262 71.6981 134.384 72.8539C133.95 73.4265 133.96 74.3615 134.404 74.9233C134.849 75.4854 135.756 75.7092 136.412 75.4181Z" fill="#E4E4E4" stroke="#E4E4E4" stroke-width="3"/>
<path d="M135.738 93.8537C135.738 93.8537 141.643 116.479 150.705 142.878C159.768 169.279 163.165 187.403 163.165 187.403" stroke="#E4E4E4" stroke-width="3" stroke-miterlimit="10" stroke-linecap="round" stroke-linejoin="round"/>
<path d="M155.168 189.464C153.932 164.953 146.517 141.471 146.517 141.471C132.924 138.587 127.157 110.401 125.095 109.371C123.037 108.341 92.5528 111.606 91.7278 112.43C91.7278 112.43 90.292 126.384 83.6956 133.851C72.7784 146.21 67.6435 144.38 65.9947 146.029C64.3487 147.677 62.4814 175.87 62.2738 194.202C62.2738 194.202 68.2487 202.165 112.121 198.389C155.992 194.613 155.168 189.464 155.168 189.464Z" stroke="#E4E4E4" stroke-width="3" stroke-miterlimit="10" stroke-linecap="round" stroke-linejoin="round"/>
<path d="M65.9947 146.029C65.9947 146.029 46.09 149.319 38.8368 131.39C38.8368 131.39 24.7877 139.617 26.4351 132.82C28.0839 126.024 39.1435 130.017 39.1435 130.017C39.1435 130.017 27.0525 122.934 31.585 117.992C36.116 113.047 39.4719 128.556 39.4719 128.556" stroke="#8FD67B" stroke-width="3" stroke-miterlimit="10" stroke-linecap="round" stroke-linejoin="round"/>
<path d="M40.8278 122.621C40.8278 122.621 15.8683 110.233 26.301 65.6062" stroke="#E4E4E4" stroke-width="3" stroke-miterlimit="10" stroke-linecap="round" stroke-linejoin="round"/>
<path d="M26.301 65.6061C26.301 65.6061 20.0371 55.7067 23.7526 50.3831C27.4653 45.0609 30.0803 58.9757 26.301 65.6061Z" stroke="#E4E4E4" stroke-width="3" stroke-miterlimit="10" stroke-linecap="round" stroke-linejoin="round"/>
<path d="M22.5746 53.9343C18.6094 49.6081 4.80859 46.5182 2.33612 36.4261C-0.134995 26.334 11.3372 15.4169 26.3009 22.6253C41.266 29.8351 51.7707 54.8951 47.4459 64.0942C43.1197 73.2948 33.9002 73.8444 27.7991 61.2119" stroke="#E4E4E4" stroke-width="3" stroke-miterlimit="10" stroke-linecap="round" stroke-linejoin="round"/>
<path d="M16.2075 30.2899C17.4139 30.811 18.053 32.362 17.5672 33.582C17.0801 34.8019 15.5466 35.4845 14.3145 35.0313C13.0796 34.5781 12.355 33.065 12.7743 31.8206C13.1936 30.5749 14.6863 29.8081 15.9429 30.1922" stroke="#8FD67B" stroke-width="3" stroke-miterlimit="10" stroke-linecap="round" stroke-linejoin="round"/>
<path d="M17.7297 50.5962C17.7297 50.5962 21.3882 40.7158 15.1921 32.6321C15.1921 32.6321 25.7701 40.9913 37.9804 32.6321" stroke="#8FD67B" stroke-width="3" stroke-miterlimit="10" stroke-linecap="round" stroke-linejoin="round"/>
<path d="M136.994 98.4947C136.994 98.4947 159.759 106.25 161.481 111.4C163.2 116.55 148.554 128.091 149.493 139.314" stroke="#E4E4E4" stroke-width="3" stroke-miterlimit="10" stroke-linecap="round" stroke-linejoin="round"/>
<path d="M149.938 140.628C149.938 140.628 153.108 142.505 157.023 141.474C160.935 140.443 162.995 144.675 158.669 146.267C154.344 147.857 150.383 141.945 149.938 140.628Z" stroke="#E4E4E4" stroke-width="3" stroke-miterlimit="10" stroke-linecap="round" stroke-linejoin="round"/>
</svg>
