<svg width="157" height="180" viewBox="0 0 157 180" fill="none" xmlns="http://www.w3.org/2000/svg">
<path d="M83.4536 20.0407C83.4536 20.0407 85.3542 11.1957 95.8913 12.0594C106.428 12.923 108.939 21.8957 108.939 21.8957" stroke="#8FD67B" stroke-width="3" stroke-miterlimit="10" stroke-linecap="round" stroke-linejoin="round"/>
<path d="M10.1099 177.954C10.1099 177.954 14.6001 110.703 29.8008 72.4717C45.0015 34.2401 66.421 21.6878 91.6404 20.191C116.86 18.6943 151.061 38.7304 145.187 51.5133C139.315 64.295 107.531 59.6992 88.8774 58.3705C70.2208 57.0418 60.8925 58.7678 57.0927 64.2949" stroke="#E4E4E4" stroke-width="3" stroke-miterlimit="10" stroke-linecap="round" stroke-linejoin="round"/>
<path d="M80 40.7334C80 40.7334 87.5996 44.8329 95.891 44.8563" stroke="#8FD67B" stroke-width="3" stroke-miterlimit="10" stroke-linecap="round" stroke-linejoin="round"/>
<path d="M118.961 45.8542C118.961 45.8542 125.959 45.2654 132.166 40.7335" stroke="#8FD67B" stroke-width="3" stroke-miterlimit="10" stroke-linecap="round" stroke-linejoin="round"/>
<path d="M70.239 117.73C70.239 117.73 96.1305 92.797 97.3407 92.797C98.5483 92.797 99.0681 100.397 94.5765 106.788C90.085 113.18 72.4666 121.988 72.4666 121.988" stroke="#8FD67B" stroke-width="3" stroke-miterlimit="10" stroke-linecap="round" stroke-linejoin="round"/>
<path d="M45.348 38.04C45.348 38.04 7.17373 55.3132 2.33698 49.4408C-2.49977 43.5672 46.3302 31.5619 46.3302 31.5619" stroke="#8FD67B" stroke-width="3" stroke-miterlimit="10" stroke-linecap="round" stroke-linejoin="round"/>
<path d="M125.459 60.0679C125.167 60.0809 134.823 60.4951 133.787 65.5051C132.751 70.5138 129.987 77.7696 132.061 100.57C134.133 123.37 151.061 152.39 154.516 177.954" stroke="#E4E4E4" stroke-width="3" stroke-miterlimit="10" stroke-linecap="round" stroke-linejoin="round"/>
<path d="M53.9845 126.617C56.3123 122.195 64.6936 126.06 68.4935 126.617C72.2933 127.171 69.5304 134.72 63.6567 135.782C57.783 136.845 51.912 130.553 53.9845 126.617Z" stroke="#E4E4E4" stroke-width="3" stroke-miterlimit="10" stroke-linecap="round" stroke-linejoin="round"/>
<path d="M53.9845 126.617C53.9845 126.617 18.7464 111.316 11.8371 99.0329C4.92651 86.7515 31.6231 68.0922 31.6231 68.0922" stroke="#E4E4E4" stroke-width="3" stroke-miterlimit="10" stroke-linecap="round" stroke-linejoin="round"/>
<path d="M53.5586 129.36C53.5586 129.36 37.4018 140.818 36.3649 142.717C35.328 144.618 38.4374 148.59 40.338 149.108C42.2386 149.627 59.0962 135.228 59.0962 135.228" stroke="#E4E4E4" stroke-width="3" stroke-miterlimit="10" stroke-linecap="round" stroke-linejoin="round"/>
<path d="M59.8569 124.522C59.8569 124.522 67.6299 118.707 68.6668 117.843C69.7024 116.98 72.2934 121.298 72.4666 121.988C72.6399 122.68 67.3081 126.378 67.3081 126.378" stroke="#E4E4E4" stroke-width="3" stroke-miterlimit="10" stroke-linecap="round" stroke-linejoin="round"/>
<mask id="path-12-inside-1_2610_503" fill="white">
<path d="M40.9685 143.431C41.1808 144.196 42.0862 144.687 42.8469 144.456C43.6063 144.227 44.087 143.327 43.863 142.564C43.3028 140.647 40.4591 141.6 40.9685 143.431Z"/>
</mask>
<path d="M40.9685 143.431L43.8588 142.627L43.8591 142.629L40.9685 143.431ZM42.8469 144.456L41.9767 141.585L41.9799 141.584L42.8469 144.456ZM43.863 142.564L40.9844 143.409L40.9835 143.405L43.863 142.564ZM43.8591 142.629C43.7147 142.108 43.3848 141.817 43.1371 141.682C42.8895 141.548 42.4778 141.434 41.9767 141.585L43.7171 147.327C41.3666 148.04 38.7471 146.644 38.0779 144.234L43.8591 142.629ZM41.9799 141.584C41.4856 141.734 41.2092 142.051 41.0795 142.293C40.9499 142.535 40.8438 142.93 40.9844 143.409L46.7415 141.719C47.4232 144.041 46.0729 146.616 43.7139 147.328L41.9799 141.584ZM40.9835 143.405C41.0731 143.712 41.3575 144.138 41.8734 144.37C42.312 144.567 42.6932 144.524 42.9216 144.452C43.1508 144.379 43.4337 144.213 43.6506 143.876C43.9067 143.478 43.962 142.998 43.8588 142.627L38.0782 144.235C37.2834 141.377 39.2642 139.317 41.1078 138.732C42.0534 138.432 43.2187 138.396 44.3321 138.897C45.5229 139.432 46.3728 140.457 46.7425 141.722L40.9835 143.405Z" fill="#E4E4E4" mask="url(#path-12-inside-1_2610_503)"/>
<path d="M67.1759 122.475L67.1779 122.474M67.1759 122.475C67.1765 122.475 67.1772 122.474 67.1779 122.474C67.304 122.459 67.3701 122.503 67.3846 122.514L67.1779 122.474M67.1759 122.475L67.1723 122.475C67.1732 122.475 67.1742 122.475 67.1751 122.475M67.1759 122.475C67.1756 122.475 67.1753 122.475 67.1751 122.475M67.1779 122.474C67.177 122.474 67.176 122.475 67.1751 122.475M67.1779 122.474L67.1751 122.475M67.1751 122.475C67.1742 122.475 67.1732 122.475 67.1723 122.475C67.0462 122.493 66.9948 122.552 66.9846 122.565C66.9744 122.578 66.9287 122.643 66.9424 122.771C66.9423 122.771 66.9423 122.771 66.9424 122.771C66.9424 122.772 66.9425 122.772 66.9427 122.773C66.943 122.775 66.9438 122.778 66.9451 122.783C66.9452 122.784 66.9453 122.784 66.9454 122.784C66.9497 122.8 66.9594 122.828 66.9807 122.864C67.0148 122.921 67.0618 122.968 67.1105 123.001C67.1565 123.032 67.1942 123.043 67.214 123.047C67.2334 123.051 67.2442 123.05 67.2489 123.05C67.249 123.05 67.2492 123.05 67.2495 123.05C67.2504 123.05 67.2515 123.049 67.2529 123.049C67.2588 123.048 67.2689 123.045 67.2833 123.038C67.3025 123.028 67.3371 123.007 67.3746 122.964C67.4143 122.919 67.4476 122.861 67.4658 122.796C67.4765 122.759 67.4787 122.73 67.479 122.714C67.479 122.714 67.479 122.713 67.479 122.713C67.479 122.708 67.4789 122.705 67.4788 122.702C67.4787 122.702 67.4787 122.701 67.4787 122.701C67.4786 122.701 67.4786 122.7 67.4786 122.7L67.1751 122.475Z" stroke="#E4E4E4" stroke-width="3"/>
<path d="M120.132 25.6283C120.132 25.6283 117.032 8.15709 94.0581 2.97513C71.0845 -2.20682 55.8838 14.5479 50.7019 23.0126C45.5199 31.4759 44.1378 37.5215 45.348 38.04C46.5555 38.5584 52.153 36.7308 52.153 36.7308" stroke="#E4E4E4" stroke-width="3" stroke-miterlimit="10" stroke-linecap="round" stroke-linejoin="round"/>
</svg>
