<svg width="156" height="169" viewBox="0 0 156 169" fill="none" xmlns="http://www.w3.org/2000/svg">
<path d="M5.66096 166.576C5.66096 166.576 17.2492 109.231 22.3189 80.1435C27.3885 51.0557 35.7175 11.22 61.793 4.70145C87.8658 -1.81709 132.408 5.42589 142.912 20.6349C153.413 35.8453 133.858 41.6394 110.319 47.4335C86.7798 53.2276 41.3915 53.0884 45.2552 41.5698" stroke="#E4E4E4" stroke-width="3" stroke-miterlimit="10" stroke-linecap="round" stroke-linejoin="round"/>
<path d="M129.951 41.8809C129.951 41.8809 128.787 57.7093 140.739 84.4397C152.69 111.17 154.5 161.145 154.5 161.145" stroke="#E4E4E4" stroke-width="3" stroke-miterlimit="10" stroke-linecap="round" stroke-linejoin="round"/>
<path d="M67.4056 34.5778C67.5871 34.0348 69.9527 28.2394 75.74 27.5163C81.5286 26.7919 84.6065 34.5778 84.6065 34.5778" stroke="#E4E4E4" stroke-width="3" stroke-miterlimit="10" stroke-linecap="round" stroke-linejoin="round"/>
<path d="M117.562 32.0431C117.562 32.0431 119.734 22.9897 124.985 22.9897C130.236 22.9897 132.047 31.0226 132.047 31.0226" stroke="#E4E4E4" stroke-width="3" stroke-miterlimit="10" stroke-linecap="round" stroke-linejoin="round"/>
<path d="M55.4545 16.4698C58.4696 13.8108 87.6843 13.5734 91.3065 14.6594C94.9287 15.7467 94.3843 36.2069 92.5739 38.1987C90.7635 40.1906 61.6115 41.8209 57.4464 39.829C53.2812 37.8372 52.3767 19.1861 55.4545 16.4698Z" stroke="#8FD67B" stroke-width="3" stroke-miterlimit="10" stroke-linecap="round" stroke-linejoin="round"/>
<path d="M104.344 14.0523C106.731 13.2337 135.306 12.1778 138.204 14.0523C141.101 15.9282 140.014 34.215 138.204 35.3024C136.392 36.3883 109.6 38.1987 106.157 36.7498C102.715 35.3023 102.469 14.6949 104.344 14.0523Z" stroke="#8FD67B" stroke-width="3" stroke-miterlimit="10" stroke-linecap="round" stroke-linejoin="round"/>
<path d="M93.9859 27.3937C93.9859 27.3937 98.5781 26.7293 103.181 27.3937" stroke="#8FD67B" stroke-width="3" stroke-miterlimit="10" stroke-linecap="round" stroke-linejoin="round"/>
<path d="M53.6659 27.0989C53.6659 27.0989 31.9152 21.7223 25.941 22.9897C19.9654 24.2571 21.0514 32.043 23.7677 33.3105" stroke="#8FD67B" stroke-width="3" stroke-miterlimit="10" stroke-linecap="round" stroke-linejoin="round"/>
<path d="M48.2129 109.901C48.2129 107.953 53.6441 107.909 57.9893 105.918C62.3359 103.927 66.4997 105.194 65.7753 109.901C65.0508 114.611 48.2129 112.799 48.2129 109.901Z" stroke="#E4E4E4" stroke-width="3" stroke-miterlimit="10" stroke-linecap="round" stroke-linejoin="round"/>
<path d="M48.2129 109.901C48.2129 109.901 22.8632 111.049 7.83288 101.512C-7.19469 91.9774 7.04568 77.1559 24.2793 69.4477" stroke="#E4E4E4" stroke-width="3" stroke-miterlimit="10" stroke-linecap="round" stroke-linejoin="round"/>
<path d="M76.0061 142.133C76.0061 142.133 69.759 142.857 55.2731 141.408C40.7885 139.961 26.1211 141.227 24.8564 133.985C23.5903 126.742 26.1307 76.5324 29.3804 73.6879C33.7256 69.8856 37.5292 69.0084 41.5116 69.4477C45.4953 69.8856 73.0319 70.6101 75.74 72.2404C78.4509 73.8693 77.1834 131.087 77.1834 131.087C76.8205 131.269 43.5034 126.561 34.8129 127.828C26.1211 129.097 25.001 134.045 25.8332 136.187" stroke="#8FD67B" stroke-width="3" stroke-miterlimit="10" stroke-linecap="round" stroke-linejoin="round"/>
</svg>
