<svg width="168" height="190" viewBox="0 0 168 190" fill="none" xmlns="http://www.w3.org/2000/svg">
<path d="M23.6011 181.658C23.6011 181.658 32.6864 117.258 63.5571 83.8053C94.4291 50.3519 130.917 46.9399 149.805 57.4079C168.693 67.8759 169.606 84.1773 159.364 91.7293C149.122 99.2798 91.7757 91.7613 81.3077 96.6585" stroke="#E4E4E4" stroke-width="3" stroke-miterlimit="10" stroke-linecap="round" stroke-linejoin="round"/>
<path d="M138.201 95.2465C138.201 95.2465 139.717 105.803 141.993 120.672C144.268 135.539 150.336 168.005 151.55 180.901" stroke="#E4E4E4" stroke-width="3" stroke-miterlimit="10" stroke-linecap="round" stroke-linejoin="round"/>
<path d="M95.5063 82.4066C95.9037 82.7159 96.3916 82.8945 96.893 82.9439C97.761 83.0292 98.6663 82.7279 99.2063 82.0452C100.756 80.0825 99.2583 77.1145 96.7863 77.2745C94.181 77.4425 93.5663 80.8946 95.5063 82.4066Z" fill="#E4E4E4"/>
<path d="M147.221 82.4066C147.617 82.7159 148.106 82.8945 148.608 82.9439C149.474 83.0292 150.38 82.7279 150.92 82.0452C152.469 80.0825 150.972 77.1145 148.501 77.2745C145.894 77.4425 145.28 80.8946 147.221 82.4066Z" fill="#E4E4E4"/>
<path d="M80.397 140.394C78.9676 140.463 82.0663 135.994 83.8876 131.594C85.7076 127.194 92.0783 128.56 91.6236 134.023C91.1676 139.482 83.5836 140.242 80.397 140.394Z" stroke="#E4E4E4" stroke-width="3" stroke-miterlimit="10" stroke-linecap="round" stroke-linejoin="round"/>
<path d="M47.021 117.789C47.021 117.789 49.4477 144.489 55.517 147.372C61.585 150.254 80.397 140.394 80.397 140.394" stroke="#E4E4E4" stroke-width="3" stroke-miterlimit="10" stroke-linecap="round" stroke-linejoin="round"/>
<path d="M2.72241 93.2119C2.72241 93.2119 6.96908 82.4052 14.8584 80.5252C22.7464 78.6466 30.0291 86.8679 30.0291 86.8679C30.0291 86.8679 34.2784 73.1866 43.0758 70.7586C51.8758 68.3306 56.7304 75.0066 56.7304 75.0066C56.7304 75.0066 58.2478 62.2626 66.4411 58.9239C74.6318 55.5866 83.4317 61.5292 83.4317 61.5292C83.4317 61.5292 83.9504 50.5799 91.6478 47.6973C99.3438 44.8159 108.048 49.6706 108.048 49.6706C108.048 49.6706 109.224 41.6573 114.988 39.0639C120.753 36.4706 130.66 41.7373 130.66 41.7373C130.66 41.7373 107.098 -8.72007 49.7517 13.1173C-7.59493 34.9546 2.72241 93.2119 2.72241 93.2119Z" stroke="#E4E4E4" stroke-width="3" stroke-miterlimit="10" stroke-linecap="round" stroke-linejoin="round"/>
<path d="M63.709 61.5292C63.709 61.5292 79.4876 114.148 83.8876 131.594" stroke="#E4E4E4" stroke-width="3" stroke-miterlimit="10" stroke-linecap="round" stroke-linejoin="round"/>
<path d="M85.8384 139.585C85.8384 139.585 93.7877 168.461 99.8357 173.618C105.885 178.777 113.168 175.439 113.774 168.764C114.381 162.088 110.133 156.484 110.133 156.484" stroke="#E4E4E4" stroke-width="3" stroke-miterlimit="10" stroke-linecap="round" stroke-linejoin="round"/>
<path d="M30.029 86.8679C30.029 86.8679 27.2304 32.0666 51.2344 12.5746C51.2344 12.5746 48.2344 39.5066 56.7304 75.0066" stroke="#E4E4E4" stroke-width="3" stroke-miterlimit="10" stroke-linecap="round" stroke-linejoin="round"/>
<path d="M83.4317 61.5292C72.1784 28.1372 51.2344 12.5745 51.2344 12.5745C51.2344 12.5745 90.1837 10.9838 108.048 49.6705" stroke="#E4E4E4" stroke-width="3" stroke-miterlimit="10" stroke-linecap="round" stroke-linejoin="round"/>
<path d="M47.021 14.2052C47.021 14.2052 42.1664 4.0052 44.897 2.1852C47.6277 0.363863 52.6477 12.5745 52.6477 12.5745" stroke="#8FD67B" stroke-width="3" stroke-miterlimit="10" stroke-linecap="round" stroke-linejoin="round"/>
<path d="M63.709 96.5626C62.9504 95.4866 58.5517 104.742 57.641 108.232C56.7303 111.72 59.461 113.389 61.4343 109.596C63.405 105.803 63.709 96.5626 63.709 96.5626Z" stroke="#8FD67B" stroke-width="3" stroke-miterlimit="10" stroke-linecap="round" stroke-linejoin="round"/>
<path d="M43.9864 171.798C43.2197 171.286 40.6491 180.748 41.4078 184.845C42.1664 188.941 45.2011 188.791 45.3517 184.239C45.5037 179.688 44.8971 172.405 43.9864 171.798Z" stroke="#8FD67B" stroke-width="3" stroke-miterlimit="10" stroke-linecap="round" stroke-linejoin="round"/>
<path d="M78.2743 147.069C77.3503 147.069 76.757 160.874 78.2743 162.848C79.7903 164.818 82.3703 163.645 81.7623 157.86C81.1557 152.076 79.3343 147.069 78.2743 147.069Z" stroke="#8FD67B" stroke-width="3" stroke-miterlimit="10" stroke-linecap="round" stroke-linejoin="round"/>
<path d="M135.773 146.008C134.948 147.106 136.076 154.503 135.773 162.241C135.469 169.977 138.502 172.86 140.626 170.736C142.75 168.612 140.02 158.296 138.957 153.137C137.896 147.978 137.593 143.58 135.773 146.008Z" stroke="#8FD67B" stroke-width="3" stroke-miterlimit="10" stroke-linecap="round" stroke-linejoin="round"/>
<path d="M125.001 59.2278C125.001 59.2278 126.669 61.8065 127.428 64.5372C128.186 67.2692 128.337 73.0332 131.676 71.6692C135.013 70.3025 129.4 59.0772 125.001 59.2278Z" stroke="#8FD67B" stroke-width="3" stroke-miterlimit="10" stroke-linecap="round" stroke-linejoin="round"/>
</svg>
